<svg version="1.2" xmlns="http://www.w3.org/2000/svg" viewBox="0 0 146 32" width="146" height="32">
    <style>
    .a {
        fill: #ff4278
    }

    .b {
        fill: #f9f9f9
    }
    </style>
    <path fill-rule="evenodd" class="a" d="m97 24.7c0.8 0.2 1.7 0.2 1.9-0.1 0.2-0.3-0.4-0.6-1.5-0.5-1.4 0-1.5 0.2-0.4 0.6z" />
    <path fill-rule="evenodd" class="a" d="m30 24.7c0.8 0.2 1.7 0.2 1.9-0.1 0.2-0.3-0.4-0.6-1.5-0.5-1.4 0-1.5 0.2-0.4 0.6z" />
    <path fill-rule="evenodd" class="a" d="m14.3 24.7c0.4 0.4 1 0.5 1.4 0.1 0.3-0.5 0-0.8-0.8-0.8-0.8 0-1.1 0.3-0.7 0.7z" />
    <path fill-rule="evenodd" class="a" d="m55.4 23c0.3 0.6 0.8 1 1.1 1 0.3 0 0.3-0.4 0-1-0.3-0.6-0.8-1-1.1-1-0.3 0-0.3 0.4 0 1z" />
    <path fill-rule="evenodd" class="a" d="m103.3 22.2q-0.8 1.3 0.5 0.5c0.6-0.4 1.2-0.9 1.2-1.2 0-0.3-0.2-0.5-0.5-0.5-0.2 0-0.8 0.6-1.2 1.2z" />
    <path fill-rule="evenodd" class="a" d="m92.2 22.6c1 1.1 2 1.7 2.2 1.4 0.3-0.3-0.5-1.1-1.7-1.9-2.1-1.3-2.1-1.3-0.5 0.5z" />
    <path fill-rule="evenodd" class="a" d="m64.9 22.8c-1.3 1.6-1.3 1.6 0.4 0.2 1-0.8 1.8-1.6 1.7-1.8 0-0.1-0.2-0.2-0.4-0.2-0.2 0-1 0.8-1.7 1.7z" />
    <path fill-rule="evenodd" class="a" d="m36.3 22.2q-0.8 1.3 0.5 0.5c0.6-0.4 1.2-0.9 1.2-1.2 0-0.3-0.2-0.5-0.5-0.5-0.2 0-0.8 0.6-1.2 1.2z" />
    <path fill-rule="evenodd" class="a" d="m24 21.3c-0.1 0.1 0.7 0.9 1.7 1.7 1.6 1.4 1.7 1.3 0.8-0.3-0.6-0.9-1.4-1.7-1.8-1.7-0.4 0-0.7 0.1-0.7 0.2z" />
    <path fill-rule="evenodd" class="a" d="m8 21.3c-0.1 0.1 0.7 0.9 1.7 1.7 1.6 1.4 1.7 1.3 0.8-0.3-0.6-0.9-1.4-1.7-1.8-1.7-0.4 0-0.7 0.1-0.7 0.2z" />
    <path fill-rule="evenodd" class="a" d="m57.4 20c0.3 0.6 0.8 1 1.1 1 0.3 0 0.3-0.4 0-1-0.3-0.6-0.8-1-1.1-1-0.3 0-0.3 0.4 0 1z" />
    <path fill-rule="evenodd" class="a" d="m52.9 20c0 0.8 0.4 1.2 0.8 0.8 0.4-0.5 0.4-1.1 0-1.6-0.4-0.4-0.8 0-0.8 0.8z" />
    <path fill-rule="evenodd" class="a" d="m11.4 20c0.3 0.6 0.8 1 1.1 1 0.3 0 0.3-0.4 0-1-0.3-0.6-0.8-1-1.1-1-0.3 0-0.3 0.4 0 1z" />
    <path fill-rule="evenodd" class="a" d="m104.9 19c0 0.8 0.4 1.2 0.8 0.8 0.4-0.5 0.4-1.1 0-1.6-0.4-0.4-0.8 0-0.8 0.8z" />
    <path fill-rule="evenodd" class="a" d="m62.7 19.7c-0.7 1.5-0.6 1.6 0.5 0.6 0.7-0.7 1.1-1.5 0.8-1.8-0.3-0.3-0.9 0.2-1.3 1.2z" />
    <path fill-rule="evenodd" class="a" d="m37.9 19c0 0.8 0.4 1.2 0.8 0.8 0.4-0.5 0.4-1.1 0-1.6-0.4-0.4-0.8 0-0.8 0.8z" />
    <path fill-rule="evenodd" class="a" d="m21.1 19.5c0 1.1 0.2 1.4 0.3 0.7 0.1-0.7 0.1-1.6-0.1-2-0.2-0.4-0.3 0.2-0.2 1.3z" />
    <path fill-rule="evenodd" class="a" d="m15.6 17.7c0.6 0.4 1.4 1.5 1.7 2.3q0.7 1.6 0.4-0.4c-0.1-1.1-0.9-2.1-1.7-2.3q-1.5-0.4-0.4 0.4z" />
    <path fill-rule="evenodd" class="a" d="m113.4 17c0.3 0.6 0.8 1 1.1 1 0.3 0 0.3-0.4 0-1-0.3-0.6-0.8-1-1.1-1-0.3 0-0.3 0.4 0 1z" />
    <path fill-rule="evenodd" class="a" d="m89.1 15.5c0 1.1 0.2 1.4 0.3 0.7 0.1-0.7 0.1-1.6-0.1-2-0.2-0.4-0.3 0.2-0.2 1.3z" />
    <path fill-rule="evenodd" class="a" d="m22.1 15.5c0 1.1 0.2 1.4 0.3 0.7 0.1-0.7 0.1-1.6-0.1-2-0.2-0.4-0.3 0.2-0.2 1.3z" />
    <path fill-rule="evenodd" class="a" d="m110.9 18.5c0 3.3 0.2 5.8 0.5 5.5 0.2-0.3 0.6-2.6 0.8-5.2 0.1-2.5-0.1-5-0.5-5.5-0.4-0.4-0.8 1.9-0.8 5.2z" />
    <path fill-rule="evenodd" class="a" d="m13.3 13.7c0.4 0.5 1 0.5 1.4 0.1 0.3-0.5 0-0.8-0.8-0.8-0.8 0-1.1 0.3-0.7 0.7z" />
    <path fill-rule="evenodd" class="a" d="m104.9 12c0 0.8 0.4 1.2 0.8 0.8 0.4-0.5 0.4-1.1 0-1.6-0.4-0.4-0.8 0-0.8 0.8z" />
    <path fill-rule="evenodd" class="a" d="m37.9 12c0 0.8 0.4 1.2 0.8 0.8 0.4-0.5 0.4-1.1 0-1.6-0.4-0.4-0.8 0-0.8 0.8z" />
    <path fill-rule="evenodd" class="a" d="m77.3 17c0 4.1 0.2 5.9 0.4 4 0.2-1.9 0.2-5.3 0-7.5-0.2-2.2-0.4-0.6-0.4 3.5z" />
    <path fill-rule="evenodd" class="a" d="m112.4 10c0.3 0.6 0.8 1 1.1 1 0.3 0 0.3-0.4 0-1-0.3-0.6-0.8-1-1.1-1-0.3 0-0.3 0.4 0 1z" />
    <path fill-rule="evenodd" class="a" d="m91.3 9.2q-0.8 1.3 0.5 0.5c0.6-0.4 1.2-0.9 1.2-1.2 0-0.3-0.2-0.5-0.5-0.5-0.2 0-0.8 0.6-1.2 1.2z" />
    <path fill-rule="evenodd" class="a" d="m24.3 9.2q-0.8 1.3 0.4 0.5c0.7-0.4 1.3-0.9 1.3-1.2 0-0.3-0.2-0.5-0.5-0.5-0.2 0-0.8 0.6-1.2 1.2z" />
    <path fill-rule="evenodd" class="a" d="m126 8.2c-0.8 0.7-1.3 2.2-1.2 3.5 0.1 1.3 0.8 2.3 1.4 2.3 0.8-0.1 0.6 0.6-0.5 1.7-1.3 1.3-1.7 2.6-1.3 4.6q0.6 2.7 3.4 3.6c1.5 0.5 3.8 0.7 5.2 0.4 1.4-0.3 3.1-1.1 3.8-1.7 0.7-0.6 1.3-2 1.3-3.1-0.1-1.1-0.6-2.4-1.2-3-0.7-0.7-0.8-1.6 0-3 0.7-1.5 0.6-2.6-0.4-4.2-1.1-1.7-2.5-2.3-5.3-2.3-2.1 0-4.4 0.5-5.2 1.2zm3 3.3c0-0.8 0.9-1.5 2-1.5 1.1 0 2 0.6 2 1.3 0 0.6-0.3 1.5-0.7 1.9-0.5 0.4-1.4 0.5-2 0.2-0.7-0.2-1.3-1.1-1.3-1.9zm-0.3 6.9c0.3-0.8 1.5-1.4 2.6-1.2 1.1 0.2 2.2 0.9 2.4 1.6 0.2 0.6-0.5 1.5-1.4 1.8-1 0.3-2.4 0.3-3 0-0.7-0.3-1-1.3-0.6-2.2z" />
    <path fill-rule="evenodd" class="a" d="m117.8 12.1c-0.1 2.8 0 5.3 0.5 5.5 0.4 0.2 0.7-2.1 0.7-5.1 0-3-0.2-5.5-0.4-5.5-0.2 0-0.6 2.3-0.8 5.1z" />
    <path fill-rule="evenodd" class="b" d="m108 15.5c0 6.9 0.3 8.5 1.5 8.5 1.1 0 1.6-1.4 1.8-5.7l0.2-5.7c5.8 8.8 8.2 11.4 9 11.4 1.2 0 1.5-1.6 1.5-8.5 0-7.1-0.3-8.5-1.6-8.5-1.3 0-1.7 1.2-1.8 5.6l-0.1 5.7c-6.2-8.8-8.6-11.4-9.3-11.3-0.8 0-1.2 2.4-1.2 8.5z" />
    <path fill-rule="evenodd" class="a" d="m107.4 15.5c0 5 0.1 7.2 0.3 5 0.2-2.2 0.2-6.3 0-9-0.2-2.8-0.3-1-0.3 4z" />
    <path fill-rule="evenodd" class="b" d="m92.5 9.5q-2.4 2.4-2.5 6c0 2.4 0.7 4.2 2.5 6 1.4 1.4 3.7 2.5 5.3 2.5 1.5 0.1 3.8-0.8 5.2-1.9 2-1.6 2.5-2.8 2.5-6.6 0-3.8-0.5-5-2.5-6.6-1.4-1.1-3.8-2-5.3-1.9-1.6 0-3.8 1-5.2 2.5zm3.1 1.6c1-0.6 2.2-1.1 2.6-1.1 0.5 0 1.5 0.7 2.3 1.5 0.8 0.8 1.5 2.6 1.5 4 0 1.4-0.7 3.2-1.6 4-0.8 0.8-2.1 1.5-2.7 1.5-0.7 0-1.8-0.5-2.5-1.2-0.7-0.7-1.3-2.7-1.4-4.5-0.1-2.2 0.4-3.5 1.8-4.2z" />
    <path fill-rule="evenodd" class="a" d="m99.3 20.7c0.4 0.4 1 0.5 1.4 0.1 0.3-0.5 0-0.8-0.8-0.8-0.8 0-1.1 0.3-0.6 0.7zm-4.9-0.7c0.3 0.6 0.8 1 1.1 1 0.3 0 0.3-0.4 0-1-0.3-0.5-0.8-1-1.1-1-0.3 0-0.3 0.5 0 1zm-1.2-4.5c0 1.9 0.2 2.3 0.5 1 0.2-1.1 0.2-2.4-0.1-3-0.2-0.5-0.4 0.4-0.4 2zm1.2-4.5c-0.5 0.6-0.1 0.8 0.9 0.5 0.9-0.3 1.7-0.7 1.7-1 0-0.3-0.4-0.5-1-0.5-0.5 0-1.2 0.4-1.6 1z" />
    <path fill-rule="evenodd" class="a" d="m87.4 15.5c0 5 0.1 7.2 0.3 5 0.2-2.2 0.2-6.3 0-9-0.2-2.8-0.3-1-0.3 4z" />
    <path fill-rule="evenodd" class="b" d="m84 15.5c0 6.9 0.3 8.5 1.5 8.5 1.2 0 1.5-1.6 1.5-8.5 0-6.9-0.3-8.5-1.5-8.5-1.2 0-1.5 1.6-1.5 8.5z" />
    <path fill-rule="evenodd" class="a" d="m82.1 8.5c0 1.1 0.2 1.4 0.3 0.7 0.1-0.7 0.1-1.6-0.1-2-0.2-0.4-0.3 0.2-0.2 1.3z" />
    <path fill-rule="evenodd" class="b" d="m69 8.5c0 0.9 0.9 1.5 2.5 1.5 2.4 0 2.5 0.2 2.5 7 0 5.6 0.3 7 1.5 7 1.2 0 1.5-1.4 1.5-7 0-6.8 0.1-7 2.5-7 1.6 0 2.5-0.6 2.5-1.5 0-1.2-1.4-1.5-6.5-1.5-5.1 0-6.5 0.3-6.5 1.5z" />
    <path fill-rule="evenodd" class="a" d="m67.3 13.5c0 3.9 0.2 5.2 0.4 3 0.2-2.2 0.2-5.3 0-7-0.2-1.7-0.4 0.2-0.4 4z" />
    <path fill-rule="evenodd" class="b" d="m53.1 14c0.3 5.5 0.8 7.2 2.4 8.4 1.1 0.9 3.4 1.6 5 1.6 1.6 0 3.8-0.7 4.7-1.7 1.3-1.3 1.8-3.5 1.8-8.6 0-5.4-0.3-6.7-1.6-6.7-1.2 0-1.6 1.3-1.7 6.7l-0.2 6.8h-6c-0.5-12.9-0.7-13.5-2.6-13.5-2 0-2.1 0.4-1.8 7z" />
    <path fill-rule="evenodd" class="a" d="m44.3 14c0 4.1 0.2 5.9 0.4 4 0.2-1.9 0.2-5.3 0-7.5-0.2-2.2-0.4-0.6-0.4 3.5z" />
    <path fill-rule="evenodd" class="b" d="m41 15.5v8.5c9.7 0 11-0.3 11-1.5 0-1.1-1.1-1.5-4-1.5h-4c0-12.6-0.3-14-1.5-14-1.2 0-1.5 1.6-1.5 8.5z" />
    <path fill-rule="evenodd" class="b" d="m25.5 9.5c-1.5 1.5-2.4 3.6-2.5 5.7 0 1.9 0.8 4.5 2 6 1.4 2 2.9 2.8 5.3 2.8 1.7 0.1 4.3-0.8 5.7-1.9 2-1.6 2.5-2.8 2.5-6.6 0-3.8-0.5-5-2.5-6.6-1.4-1.1-3.8-2-5.3-1.9-1.6 0-3.8 1-5.2 2.5zm3.1 1.6c1-0.6 2.2-1.1 2.6-1.1 0.5 0 1.5 0.7 2.3 1.5 0.8 0.8 1.5 2.6 1.5 4 0 1.4-0.7 3.2-1.6 4-0.8 0.8-2.1 1.5-2.7 1.5-0.7 0-1.8-0.5-2.5-1.2-0.7-0.7-1.3-2.7-1.4-4.5-0.1-2.2 0.4-3.5 1.8-4.2z" />
    <path fill-rule="evenodd" class="a" d="m27.4 20c0.3 0.6 0.8 1 1.1 1 0.3 0 0.3-0.4 0-1-0.3-0.6-0.8-1-1.1-1-0.3 0-0.3 0.4 0 1zm-1.3-4.5c0 1.1 0.2 1.4 0.3 0.7 0.1-0.7 0.1-1.6-0.1-2-0.2-0.4-0.3 0.2-0.2 1.3zm1.3-4.5c-0.5 0.6-0.1 0.8 0.9 0.5 0.9-0.3 1.7-0.7 1.7-1 0-0.3-0.4-0.5-1-0.5-0.5 0-1.2 0.4-1.6 1z" />
    <path fill-rule="evenodd" class="a" d="m18 7.3c-0.1 0.1 0.7 0.9 1.7 1.7 1.6 1.4 1.7 1.3 0.8-0.2-0.6-1-1.4-1.8-1.8-1.8-0.4 0-0.7 0.1-0.7 0.3z" />
    <path fill-rule="evenodd" class="b" d="m10 9c-1.1 1.1-2 2.3-2 2.8 0 0.4 0.5 1.5 1.2 2.4 0.7 0.9 2.9 2.1 4.8 2.6 2.1 0.5 3.6 1.5 3.8 2.5 0.1 1-0.6 1.8-1.5 2-1 0.2-3-0.4-4.5-1.2-1.5-0.9-3.1-1.3-3.5-0.9-0.4 0.5 0.1 1.7 1.2 2.8 1.1 1.1 3.2 2.1 4.8 2 1.5 0 3.6-0.4 4.7-1 1.3-0.6 2-2 2-3.7 0.1-2.1-0.6-3.1-2.7-4-1.5-0.6-3.6-1.4-4.5-1.7-1-0.3-1.8-1.3-1.8-2.1 0-0.8 0.9-1.5 2-1.5 1.1 0 2.9 0.6 4 1.3 1 0.6 2.3 0.9 2.7 0.5 0.4-0.5-0.1-1.7-1.2-2.8-1.1-1.1-3.2-2.1-4.8-2-1.5 0-3.6 0.9-4.7 2z" />
    <path fill-rule="evenodd" class="a" d="m97.3 6.7c0.4 0.5 1 0.5 1.4 0 0.3-0.4 0-0.7-0.8-0.7-0.8 0-1.1 0.3-0.6 0.7z" />
    <path fill-rule="evenodd" class="a" d="m30.3 6.7c0.4 0.5 1 0.5 1.4 0 0.3-0.4 0-0.7-0.8-0.7-0.8 0-1.1 0.3-0.7 0.7z" />
</svg>
